<?xml version="1.0" encoding="UTF-8"?>
<svg width="700pt" height="700pt" version="1.1" viewBox="0 0 700 700" xmlns="http://www.w3.org/2000/svg">
 <g>
  <path d="m504.12 490h-364.12v-364.12c0-9.6602-7.8398-17.5-17.5-17.5s-17.5 7.8398-17.5 17.5v381.62c0 9.6758 7.8398 17.5 17.5 17.5h381.62c9.6758 0 17.5-7.8242 17.5-17.5s-7.8398-17.5-17.5-17.5z"/>
  <path d="m577.5 35h-381.62c-9.6602 0-17.5 7.8398-17.5 17.5v381.62c0 9.6758 7.8398 17.5 17.5 17.5h381.62c9.6758 0 17.5-7.8242 17.5-17.5v-381.62c0-9.6602-7.8242-17.5-17.5-17.5zm-17.5 381.62h-346.62v-346.62h346.62z"/>
  <path d="m291.29 165.41h190.82c9.6758 0 17.5-7.8398 17.5-17.5s-7.8242-17.5-17.5-17.5h-190.82c-9.6602 0-17.5 7.8398-17.5 17.5s7.8398 17.5 17.5 17.5z"/>
  <path d="m291.29 260.8h190.82c9.6758 0 17.5-7.8398 17.5-17.5 0-9.6602-7.8242-17.5-17.5-17.5h-190.82c-9.6602 0-17.5 7.8398-17.5 17.5 0 9.6602 7.8398 17.5 17.5 17.5z"/>
  <path d="m291.29 356.2h190.82c9.6758 0 17.5-7.8242 17.5-17.5 0-9.6758-7.8242-17.5-17.5-17.5h-190.82c-9.6602 0-17.5 7.8242-17.5 17.5 0 9.6758 7.8398 17.5 17.5 17.5z"/>
 </g>
</svg>
